# Blender v2.93.5 OBJ File: 'lvl6.blend'
# www.blender.org
mtllib lvl6.mtl
o Cube.003
v -16.738604 26.229687 20.702164
v -16.738604 28.229687 20.702164
v -16.738604 26.229687 6.159523
v -16.738604 28.229687 6.159523
v -14.738604 26.229687 20.702164
v -14.738604 28.229687 20.702164
v -14.738604 26.229687 6.159523
v -14.738604 28.229687 6.159523
v 7.971090 -12.142441 18.642433
v 7.971090 45.755623 18.642443
v -65.500908 45.755623 18.642443
v -65.500908 -12.142441 18.642433
v -65.500908 45.755627 -5.642429
v -65.500908 -12.142437 -5.642437
v 7.971090 -12.142437 -5.642437
v 7.971090 45.755627 -5.642429
v 7.843828 -12.072338 18.572329
v -65.373642 -12.072338 18.572329
v -65.345047 45.755623 18.556587
v 7.815231 45.755623 18.556587
v -65.373642 -12.072334 -5.572334
v -65.345047 45.755627 -5.556572
v 7.843828 -12.072334 -5.572334
v 7.815231 45.755627 -5.556572
v -47.328377 -12.141735 6.698464
v -47.328377 45.754925 6.698473
v -47.328377 45.754925 6.301541
v -47.328377 -12.141735 6.301531
v 7.860157 45.754925 6.301541
v 7.860157 -12.141735 6.301531
v 7.860157 45.754925 6.698473
v 7.860157 -12.141735 6.698464
v -5.298862 -2.416267 6.499999
v -5.298862 2.416265 6.500000
v -5.298862 2.416267 -5.581327
v -5.298862 -2.416265 -5.581327
v 7.860159 2.416267 -5.581327
v 7.860159 -2.416265 -5.581327
v 7.860159 2.416265 6.500000
v 7.860159 -2.416267 6.499999
v -5.298862 -2.416269 18.581327
v -5.298862 2.416264 18.581327
v -5.298862 2.416265 6.500000
v -5.298862 -2.416267 6.499999
v 7.860159 2.416265 6.500000
v 7.860159 -2.416267 6.499999
v 7.860159 2.416264 18.581327
v 7.860159 -2.416269 18.581327
v 7.843828 -12.072338 18.572329
v -35.986912 -12.072338 18.572329
v 7.971090 -12.142441 18.642433
v 7.971090 12.142434 18.642437
v -36.114174 12.142434 18.642437
v -36.114174 -12.142441 18.642433
v 7.843828 -12.072338 18.572329
v -35.986912 -12.072338 18.572329
v -35.958313 12.142434 18.556581
v 7.815231 12.142434 18.556581
v 7.843828 -12.072338 18.572329
v -35.986912 -12.072338 18.572329
v -35.958313 45.755623 18.556587
v 7.815231 45.755623 18.556587
v -36.114174 45.755623 18.642443
v 7.971090 45.755623 18.642443
v 7.971092 45.661167 18.598049
v 7.971092 45.661182 -5.686827
v -65.657089 45.661182 -5.686827
v -65.657089 45.661167 18.598049
v 7.843830 45.591072 18.527946
v -65.529831 45.591072 18.527946
v -65.501236 45.575317 -5.686827
v 7.815231 45.575317 -5.686827
v 7.843830 45.591072 18.527946
v -65.529831 45.591072 18.527946
v -65.501236 45.575317 -5.686827
v 7.815231 45.575317 -5.686827
v 7.971092 45.661167 18.598049
v 7.971092 45.661182 -5.686827
v -65.657089 45.661182 -5.686827
v -65.657089 45.661167 18.598049
v 7.843830 45.591072 18.527946
v -65.529831 45.591072 18.527946
v -65.501236 45.575317 -5.686827
v 7.815231 45.575317 -5.686827
v 7.843830 45.591072 18.527946
v -65.529831 45.591072 18.527946
v -65.501236 45.575317 -5.686827
v 7.815231 45.575317 -5.686827
v -36.114174 45.661182 -5.686827
v 7.971092 45.661182 -5.686827
v -62.500542 2.089741 3.795248
v -62.500542 4.089741 3.795248
v -62.500542 4.089741 -3.795246
v -62.500542 2.089741 -3.795248
v -50.093185 4.089741 -3.795246
v -50.093185 2.089741 -3.795248
v -50.093185 4.089741 3.795248
v -50.093185 2.089741 3.795248
v -62.500542 2.089739 17.088600
v -62.500542 4.089739 17.088600
v -62.500542 4.089741 9.498108
v -62.500542 2.089739 9.498107
v -50.093185 4.089741 9.498108
v -50.093185 2.089739 9.498107
v -50.093185 4.089739 17.088600
v -50.093185 2.089739 17.088600
v -17.336060 26.229687 7.271321
v -17.336060 28.229687 7.271321
v -17.336060 26.229687 -7.271320
v -17.336060 28.229687 -7.271320
v -15.336060 26.229687 7.271321
v -15.336060 28.229687 7.271321
v -15.336060 26.229687 -7.271320
v -15.336060 28.229687 -7.271320
v -40.690926 26.229687 7.271321
v -40.690926 28.229687 7.271321
v -40.690926 26.229687 -7.271320
v -40.690926 28.229687 -7.271320
v -38.690926 26.229687 7.271321
v -38.690926 28.229687 7.271321
v -38.690926 26.229687 -7.271320
v -38.690926 28.229687 -7.271320
v -40.690926 26.229687 20.702164
v -40.690926 28.229687 20.702164
v -40.690926 26.229687 6.159523
v -40.690926 28.229687 6.159523
v -38.690926 26.229687 20.702164
v -38.690926 28.229687 20.702164
v -38.690926 26.229687 6.159523
v -38.690926 28.229687 6.159523
vt 0.375000 0.000000
vt 0.625000 0.000000
vt 0.625000 0.250000
vt 0.375000 0.250000
vt 0.625000 0.500000
vt 0.375000 0.500000
vt 0.625000 0.750000
vt 0.375000 0.750000
vt 0.625000 1.000000
vt 0.375000 1.000000
vt 0.125000 0.500000
vt 0.125000 0.750000
vt 0.875000 0.500000
vt 0.875000 0.750000
vt 0.375000 0.000000
vt 0.625000 0.000000
vt 0.625000 0.250000
vt 0.375000 0.250000
vt 0.625000 0.500000
vt 0.375000 0.500000
vt 0.625000 0.750000
vt 0.375000 0.750000
vt 0.625000 1.000000
vt 0.375000 1.000000
vt 0.125000 0.500000
vt 0.125000 0.750000
vt 0.875000 0.500000
vt 0.875000 0.750000
vt 0.375000 0.000000
vt 0.625000 0.000000
vt 0.625000 0.250000
vt 0.375000 0.250000
vt 0.625000 0.500000
vt 0.375000 0.500000
vt 0.625000 0.750000
vt 0.375000 0.750000
vt 0.625000 1.000000
vt 0.375000 1.000000
vt 0.125000 0.500000
vt 0.125000 0.750000
vt 0.875000 0.500000
vt 0.875000 0.750000
vt 0.375000 0.000000
vt 0.625000 0.000000
vt 0.625000 0.250000
vt 0.375000 0.250000
vt 0.625000 0.500000
vt 0.375000 0.500000
vt 0.625000 0.750000
vt 0.375000 0.750000
vt 0.625000 1.000000
vt 0.375000 1.000000
vt 0.125000 0.500000
vt 0.125000 0.750000
vt 0.875000 0.500000
vt 0.875000 0.750000
vt 0.375000 0.750000
vt 0.625000 0.750000
vt 0.625000 1.000000
vt 0.375000 1.000000
vt 0.375000 0.000000
vt 0.625000 0.000000
vt 0.625000 0.250000
vt 0.375000 0.250000
vt 0.125000 0.500000
vt 0.375000 0.500000
vt 0.125000 0.750000
vt 0.625000 0.500000
vt 0.375000 0.750000
vt 0.375000 1.000000
vt 0.625000 1.000000
vt 0.625000 0.750000
vt 0.375000 0.000000
vt 0.375000 0.250000
vt 0.625000 0.250000
vt 0.625000 0.000000
vt 0.125000 0.500000
vt 0.125000 0.750000
vt 0.375000 0.500000
vt 0.625000 0.500000
vt 0.375000 0.000000
vt 0.625000 0.000000
vt 0.625000 0.250000
vt 0.375000 0.250000
vt 0.625000 0.500000
vt 0.375000 0.500000
vt 0.625000 0.750000
vt 0.375000 0.750000
vt 0.625000 1.000000
vt 0.375000 1.000000
vt 0.125000 0.500000
vt 0.125000 0.750000
vt 0.875000 0.500000
vt 0.875000 0.750000
vt 0.375000 0.000000
vt 0.625000 0.000000
vt 0.625000 0.250000
vt 0.375000 0.250000
vt 0.625000 0.500000
vt 0.375000 0.500000
vt 0.625000 0.750000
vt 0.375000 0.750000
vt 0.625000 1.000000
vt 0.375000 1.000000
vt 0.125000 0.500000
vt 0.125000 0.750000
vt 0.875000 0.500000
vt 0.875000 0.750000
vt 0.375000 0.000000
vt 0.625000 0.000000
vt 0.625000 0.250000
vt 0.375000 0.250000
vt 0.625000 0.500000
vt 0.375000 0.500000
vt 0.625000 0.750000
vt 0.375000 0.750000
vt 0.625000 1.000000
vt 0.375000 1.000000
vt 0.125000 0.500000
vt 0.125000 0.750000
vt 0.875000 0.500000
vt 0.875000 0.750000
vt 0.375000 0.750000
vt 0.625000 0.750000
vt 0.625000 1.000000
vt 0.375000 1.000000
vt 0.375000 0.750000
vt 0.375000 1.000000
vt 0.625000 1.000000
vt 0.625000 0.750000
vt 0.375000 0.750000
vt 0.375000 1.000000
vt 0.625000 1.000000
vt 0.625000 0.750000
vt 0.625000 1.000000
vt 0.625000 0.750000
vt 0.375000 0.750000
vt 0.625000 0.750000
vt 0.625000 1.000000
vt 0.375000 1.000000
vt 0.375000 0.750000
vt 0.375000 1.000000
vt 0.625000 1.000000
vt 0.625000 0.750000
vt 0.375000 0.750000
vt 0.375000 1.000000
vt 0.625000 1.000000
vt 0.625000 0.750000
vt 0.375000 0.750000
vt 0.625000 0.750000
vt 0.625000 1.000000
vt 0.375000 1.000000
vt 0.375000 0.750000
vt 0.375000 1.000000
vt 0.625000 1.000000
vt 0.625000 0.750000
vt 0.375000 0.750000
vt 0.375000 1.000000
vt 0.625000 1.000000
vt 0.625000 0.750000
vt 0.625000 1.000000
vt 0.625000 0.750000
vt 0.375000 0.000000
vt 0.625000 0.000000
vt 0.625000 0.250000
vt 0.375000 0.250000
vt 0.625000 0.500000
vt 0.375000 0.500000
vt 0.625000 0.750000
vt 0.375000 0.750000
vt 0.625000 1.000000
vt 0.375000 1.000000
vt 0.125000 0.500000
vt 0.125000 0.750000
vt 0.875000 0.500000
vt 0.875000 0.750000
vt 0.375000 0.000000
vt 0.625000 0.000000
vt 0.625000 0.250000
vt 0.375000 0.250000
vt 0.625000 0.500000
vt 0.375000 0.500000
vt 0.625000 0.750000
vt 0.375000 0.750000
vt 0.625000 1.000000
vt 0.375000 1.000000
vt 0.125000 0.500000
vt 0.125000 0.750000
vt 0.875000 0.500000
vt 0.875000 0.750000
vn -1.0000 0.0000 0.0000
vn 0.0000 0.0000 -1.0000
vn 1.0000 0.0000 0.0000
vn 0.0000 0.0000 1.0000
vn 0.0000 -1.0000 0.0000
vn 0.0000 1.0000 0.0000
vn 0.5773 -0.5773 0.5773
vn 0.5773 0.5773 0.5773
vn -0.5773 0.5773 0.5773
vn -0.5773 -0.5773 0.5773
vn -0.5773 0.5773 -0.5773
vn -0.5773 -0.5773 -0.5773
vn 0.5773 -0.5773 -0.5773
vn 0.5773 0.5773 -0.5773
vn -0.5775 0.5771 -0.5774
vn 0.5775 0.5771 -0.5774
vn 0.3016 0.9044 -0.3016
vn -0.3016 0.9044 -0.3016
vn 0.5775 0.5771 0.5774
vn 0.3016 0.9044 0.3016
vn -0.5775 0.5771 0.5774
vn -0.3016 0.9044 0.3016
vn 0.0000 -0.0006 -1.0000
vn 0.0000 -0.0002 -1.0000
vn 0.0000 0.8591 -0.5118
vn 0.0000 -1.0000 0.0006
vn 0.0000 -1.0000 -0.0012
vn 0.0000 -0.5120 -0.8589
usemtl Material.001
s off
f 1/1/1 2/2/1 4/3/1 3/4/1
f 3/4/2 4/3/2 8/5/2 7/6/2
f 7/6/3 8/5/3 6/7/3 5/8/3
f 5/8/4 6/7/4 2/9/4 1/10/4
f 3/11/5 7/6/5 5/8/5 1/12/5
f 8/5/6 4/13/6 2/14/6 6/7/6
f 107/15/1 108/16/1 110/17/1 109/18/1
f 109/18/2 110/17/2 114/19/2 113/20/2
f 113/20/3 114/19/3 112/21/3 111/22/3
f 111/22/4 112/21/4 108/23/4 107/24/4
f 109/25/5 113/20/5 111/22/5 107/26/5
f 114/19/6 110/27/6 108/28/6 112/21/6
f 115/29/1 116/30/1 118/31/1 117/32/1
f 117/32/2 118/31/2 122/33/2 121/34/2
f 121/34/3 122/33/3 120/35/3 119/36/3
f 119/36/4 120/35/4 116/37/4 115/38/4
f 117/39/5 121/34/5 119/36/5 115/40/5
f 122/33/6 118/41/6 116/42/6 120/35/6
f 123/43/1 124/44/1 126/45/1 125/46/1
f 125/46/2 126/45/2 130/47/2 129/48/2
f 129/48/3 130/47/3 128/49/3 127/50/3
f 127/50/4 128/49/4 124/51/4 123/52/4
f 125/53/5 129/48/5 127/50/5 123/54/5
f 130/47/6 126/55/6 124/56/6 128/49/6
s 1
f 9/57/7 10/58/8 11/59/9 12/60/10
f 12/61/10 11/62/9 13/63/11 14/64/12
f 14/65/12 15/66/13 9/57/7 12/67/10
f 15/66/13 16/68/14 10/58/8 9/57/7
f 14/64/12 13/63/11 16/68/14 15/66/13
f 17/69/15 18/70/16 19/71/17 20/72/18
f 18/73/16 21/74/19 22/75/20 19/76/17
f 21/77/19 18/78/16 17/69/15 23/79/21
f 23/79/21 17/69/15 20/72/18 24/80/22
f 21/74/19 23/79/21 24/80/22 22/75/20
f 11/59/9 10/58/8 20/72/18 19/71/17
f 10/58/8 16/68/14 24/80/22 20/72/18
f 13/63/11 11/62/9 19/76/17 22/75/20
f 16/68/14 13/63/11 22/75/20 24/80/22
f 25/81/10 26/82/9 27/83/11 28/84/12
f 28/84/12 27/83/11 29/85/14 30/86/13
f 30/86/13 29/85/14 31/87/8 32/88/7
f 32/88/7 31/87/8 26/89/9 25/90/10
f 28/91/12 30/86/13 32/88/7 25/92/10
f 29/85/14 27/93/11 26/94/9 31/87/8
f 33/95/10 34/96/9 35/97/11 36/98/12
f 36/98/12 35/97/11 37/99/14 38/100/13
f 38/100/13 37/99/14 39/101/8 40/102/7
f 40/102/7 39/101/8 34/103/9 33/104/10
f 36/105/12 38/100/13 40/102/7 33/106/10
f 37/99/14 35/107/11 34/108/9 39/101/8
f 41/109/10 42/110/9 43/111/11 44/112/12
f 44/112/12 43/111/11 45/113/14 46/114/13
f 46/114/13 45/113/14 47/115/8 48/116/7
f 48/116/7 47/115/8 42/117/9 41/118/10
f 44/119/12 46/114/13 48/116/7 41/120/10
f 45/113/14 43/121/11 42/122/9 47/115/8
f 51/123/4 52/124/4 53/125/4 54/126/4
f 55/127/23 56/128/23 57/129/23 58/130/23
f 59/131/24 60/132/24 61/133/25 62/134/25
f 63/135/6 64/136/6 62/134/25 61/133/25
f 65/137/6 66/138/6 67/139/6 68/140/6
f 69/141/26 70/142/26 71/143/26 72/144/26
f 73/145/26 74/146/26 75/147/26 76/148/26
f 77/149/6 78/150/6 79/151/6 80/152/6
f 81/153/26 82/154/26 83/155/26 84/156/26
f 85/157/26 86/158/26 87/159/27 88/160/28
f 89/161/2 90/162/2 88/160/28 87/159/27
f 91/163/10 92/164/9 93/165/11 94/166/12
f 94/166/12 93/165/11 95/167/14 96/168/13
f 96/168/13 95/167/14 97/169/8 98/170/7
f 98/170/7 97/169/8 92/171/9 91/172/10
f 94/173/12 96/168/13 98/170/7 91/174/10
f 95/167/14 93/175/11 92/176/9 97/169/8
f 99/177/10 100/178/9 101/179/11 102/180/12
f 102/180/12 101/179/11 103/181/14 104/182/13
f 104/182/13 103/181/14 105/183/8 106/184/7
f 106/184/7 105/183/8 100/185/9 99/186/10
f 102/187/12 104/182/13 106/184/7 99/188/10
f 103/181/14 101/189/11 100/190/9 105/183/8
l 50 49
